HIERARCHY
ROOT Hips
{
	OFFSET -0.001795 -0.223333 0.028219
	CHANNELS 6 Xposition Yposition Zposition Zrotation Yrotation Xrotation 
	JOINT LeftUpLeg
	{
		OFFSET 0.069520 -0.091406 -0.006815
		CHANNELS 3 Zrotation Yrotation Xrotation
		JOINT LeftLeg
		{
			OFFSET 0.034277 -0.375199 -0.004496
			CHANNELS 3 Zrotation Yrotation Xrotation
			JOINT LeftFoot
			{
				OFFSET -0.013596 -0.397961 -0.043693
				CHANNELS 3 Zrotation Yrotation Xrotation
				JOINT LeftToe
				{
					OFFSET 0.026358 -0.055791 0.119288
					CHANNELS 3 Zrotation Yrotation Xrotation
					End Site
					{
						OFFSET 0.000000 0.000000 0.000000
					}
				}
			}
		}
	}
	JOINT RightUpLeg
	{
		OFFSET -0.067670 -0.090522 -0.004320
		CHANNELS 3 Zrotation Yrotation Xrotation
		JOINT RightLeg
		{
			OFFSET -0.038290 -0.382569 -0.008850
			CHANNELS 3 Zrotation Yrotation Xrotation
			JOINT RightFoot
			{
				OFFSET 0.015774 -0.398415 -0.042312
				CHANNELS 3 Zrotation Yrotation Xrotation
				JOINT RightToe
				{
					OFFSET -0.025372 -0.048144 0.123348
					CHANNELS 3 Zrotation Yrotation Xrotation
					End Site
					{
						OFFSET 0.000000 0.000000 0.000000
					}
				}
			}
		}
	}
	JOINT Spine
	{
		OFFSET -0.002533 0.108963 -0.026696
		CHANNELS 3 Zrotation Yrotation Xrotation
		JOINT Spine1
		{
			OFFSET 0.005487 0.135180 0.001092
			CHANNELS 3 Zrotation Yrotation Xrotation
			JOINT Spine2
			{
				OFFSET 0.001457 0.052922 0.025425
				CHANNELS 3 Zrotation Yrotation Xrotation
				JOINT Neck
				{
					OFFSET -0.002778 0.213870 -0.042857
					CHANNELS 3 Zrotation Yrotation Xrotation
					JOINT Head
					{
						OFFSET 0.005152 0.064970 0.051349
						CHANNELS 3 Zrotation Yrotation Xrotation
						End Site
						{
							OFFSET 0.000000 0.000000 0.000000
						}
					}
				}
				JOINT LeftShoulder
				{
					OFFSET 0.078845 0.121749 -0.034090
					CHANNELS 3 Zrotation Yrotation Xrotation
					JOINT LeftArm
					{
						OFFSET 0.090977 0.030469 -0.008868
						CHANNELS 3 Zrotation Yrotation Xrotation
						JOINT LeftForeArm
						{
							OFFSET 0.259612 -0.012772 -0.027456
							CHANNELS 3 Zrotation Yrotation Xrotation
							JOINT LeftHand
							{
								OFFSET 0.249234 0.008986 -0.001171
								CHANNELS 3 Zrotation Yrotation Xrotation
								End Site
								{
									OFFSET 0.000000 0.000000 0.000000
								}
							}
						}
					}
				}
				JOINT RightShoulder
				{
					OFFSET -0.081759 0.118833 -0.038615
					CHANNELS 3 Zrotation Yrotation Xrotation
					JOINT RightArm
					{
						OFFSET -0.096012 0.032551 -0.009143
						CHANNELS 3 Zrotation Yrotation Xrotation
						JOINT RightForeArm
						{
							OFFSET -0.253742 -0.013329 -0.021401
							CHANNELS 3 Zrotation Yrotation Xrotation
							JOINT RightHand
							{
								OFFSET -0.255298 0.007772 -0.005559
								CHANNELS 3 Zrotation Yrotation Xrotation
								End Site
								{
									OFFSET 0.000000 0.000000 0.000000
								}
							}
						}
					}
				}
			}
		}
	}
}
MOTION
Frames: 17
Frame Time: 0.050000
-1.066490 0.947145 -0.254078 1.512129 -13.165240 4.189824 5.546850 -0.325538 -10.132965 -1.823376 0.344801 12.482042 0.129652 1.088801 2.974175 0.000000 0.000000 0.000000 -19.880493 0.567781 -17.837719 1.842751 0.156607 8.241535 1.115310 -7.872719 20.350397 0.000000 0.000000 0.000000 6.363426 -1.689679 23.399260 -2.304670 0.858065 -20.885407 2.501616 10.817616 26.335018 22.811737 -12.735060 -21.847568 0.000000 0.000000 0.000000 -11.047984 -17.747778 7.075737 -36.586869 -13.132106 -2.176883 -11.619383 -68.829757 10.792342 0.000000 0.000000 0.000000 24.932540 15.585430 9.084688 44.098581 45.437956 10.411461 -8.996458 22.582296 -0.614092 0.000000 0.000000 0.000000 
-1.095850 0.944996 -0.254277 1.973644 -11.382780 4.969059 6.382482 -0.302313 -10.889021 -1.769054 0.268551 11.943934 0.385805 1.964469 4.122370 0.000000 0.000000 0.000000 -19.508760 0.471074 -17.626381 2.589785 0.033545 8.515193 -0.643907 -9.991433 19.151455 0.000000 0.000000 0.000000 7.295681 -2.000671 23.280631 -2.154462 0.848210 -20.426488 2.908638 11.232823 26.476520 24.757531 -13.530404 -22.862777 0.000000 0.000000 0.000000 -12.021102 -18.561533 7.280045 -37.838227 -12.212023 -2.419668 -16.666017 -69.285928 14.129109 0.000000 0.000000 0.000000 24.192681 16.553399 10.089735 41.151672 47.288130 10.048521 -11.440306 18.722663 -0.824852 0.000000 0.000000 0.000000 
-1.124609 0.945150 -0.253843 2.382815 -10.105808 5.472759 6.853143 -0.300455 -11.325732 -1.302081 0.121521 11.849926 0.357115 1.987142 4.195269 0.000000 0.000000 0.000000 -18.803961 0.418631 -17.692760 3.760260 -0.148992 9.160400 -1.835335 -11.262360 17.506528 0.000000 0.000000 0.000000 8.181458 -2.310956 23.760545 -2.100687 0.851080 -19.623158 3.102091 11.045272 26.358616 24.856320 -13.198704 -23.593257 0.000000 0.000000 0.000000 -11.986046 -18.434842 7.102790 -39.784367 -12.326257 -2.431795 -21.206970 -69.437888 17.318978 0.000000 0.000000 0.000000 21.706083 17.841782 10.576868 39.402169 48.834983 10.123150 -12.042765 15.878263 -0.756700 0.000000 0.000000 0.000000 
-1.153074 0.946986 -0.253589 3.068651 -8.917953 6.032744 7.191811 -0.306913 -11.190630 -1.191046 0.061256 10.435529 0.506353 3.085188 6.955923 0.000000 0.000000 0.000000 -18.110756 0.376424 -17.968461 4.752003 -0.314973 10.205245 -2.852353 -12.281337 15.439188 0.000000 0.000000 0.000000 9.037793 -2.601653 23.924511 -2.132382 0.887229 -19.797703 3.345138 10.640933 26.674870 25.748964 -13.288525 -24.891164 0.000000 0.000000 0.000000 -12.152018 -18.974593 7.329657 -41.398035 -12.129452 -2.578284 -25.389903 -70.930550 20.911205 0.000000 0.000000 0.000000 20.225830 18.245039 10.624740 38.026458 49.451399 9.833349 -11.629542 14.664637 -0.650491 0.000000 0.000000 0.000000 
-1.180699 0.948214 -0.254090 3.568304 -7.817633 6.136847 7.433814 -0.308309 -10.650045 -0.636873 -0.072873 9.235303 0.154597 2.944948 8.474049 0.000000 0.000000 0.000000 -17.008664 0.373986 -17.963682 5.388190 -0.439953 11.316240 -3.982286 -13.707265 13.638695 0.000000 0.000000 0.000000 9.664410 -2.836125 24.181436 -1.959498 0.863029 -19.350938 3.013755 10.073772 26.835835 25.394620 -12.983665 -24.999617 0.000000 0.000000 0.000000 -11.778099 -18.543960 7.090568 -42.203945 -13.421375 -2.212094 -31.046788 -71.574841 25.430824 0.000000 0.000000 0.000000 17.773372 18.928975 10.521340 38.273655 50.747970 10.558242 -12.199055 13.245584 -0.618100 0.000000 0.000000 0.000000 
-1.206949 0.950121 -0.256066 3.925837 -6.607826 6.269984 7.943833 -0.293930 -10.295039 -0.650475 -0.077524 8.228081 -0.098590 3.281890 10.843541 0.000000 0.000000 0.000000 -16.177037 0.352478 -18.003853 6.371897 -0.658071 12.243807 -4.949530 -15.101289 12.702523 0.000000 0.000000 0.000000 10.684984 -3.202271 24.610453 -2.392218 1.008397 -19.223324 3.233556 9.398249 26.597515 25.241685 -12.815178 -25.091915 0.000000 0.000000 0.000000 -11.636036 -19.283405 7.413396 -42.387704 -14.901251 -1.704661 -30.673067 -71.627601 25.204051 0.000000 0.000000 0.000000 16.160912 18.886972 10.166123 37.552208 50.932158 10.429859 -11.676801 13.795490 -0.618410 0.000000 0.000000 0.000000 
-1.231148 0.952126 -0.259217 4.580162 -5.804824 6.550682 8.276543 -0.300267 -10.817536 -0.750292 -0.063738 7.852060 -0.365987 3.503660 12.904216 0.000000 0.000000 0.000000 -15.460953 0.363662 -18.105471 6.865930 -0.782315 12.479747 -5.298441 -15.480093 11.612163 0.000000 0.000000 0.000000 11.194727 -3.419588 24.898260 -2.381592 1.021974 -19.272357 3.010936 8.874852 26.653962 24.417032 -12.257030 -25.157909 0.000000 0.000000 0.000000 -11.294951 -19.521456 7.512733 -41.961617 -17.151353 -0.976301 -26.541050 -71.779759 22.213205 0.000000 0.000000 0.000000 14.609802 19.288666 10.035724 37.904246 51.391926 10.835753 -11.829914 14.325090 -0.670344 0.000000 0.000000 0.000000 
-1.252871 0.954675 -0.262824 5.423661 -4.841884 6.860144 8.139267 -0.355512 -11.522951 -0.878043 -0.049664 7.704723 -0.080105 4.754326 15.360977 0.000000 0.000000 0.000000 -15.035274 0.337974 -18.338264 7.430169 -0.928829 12.410840 -5.951197 -16.480340 10.828024 0.000000 0.000000 0.000000 12.054854 -3.680002 24.698215 -2.863598 1.175232 -18.890527 3.283136 8.490983 26.495913 23.468611 -11.748875 -24.734801 0.000000 0.000000 0.000000 -10.368727 -20.741706 7.960808 -40.544110 -19.991872 -0.077908 -16.808614 -71.598788 14.886889 0.000000 0.000000 0.000000 13.788592 18.722579 9.612522 37.356082 51.335360 10.645764 -10.847360 15.576538 -0.649967 0.000000 0.000000 0.000000 
-1.271900 0.957268 -0.266055 6.356153 -4.135787 6.903292 7.633979 -0.430974 -12.077566 -0.817941 -0.075997 8.069127 -0.252008 5.009876 16.944333 0.000000 0.000000 0.000000 -14.970516 0.295724 -18.138379 7.607550 -0.983108 11.969795 -6.001280 -16.463343 10.437101 0.000000 0.000000 0.000000 12.359736 -3.883546 25.346157 -2.532709 1.099172 -18.792414 3.215909 8.169776 26.421127 22.455544 -11.076712 -24.717383 0.000000 0.000000 0.000000 -9.456029 -21.153562 8.044958 -38.921477 -22.774009 0.689240 -7.432586 -71.379012 7.978451 0.000000 0.000000 0.000000 12.296801 19.273972 9.572744 37.325614 51.380835 10.764115 -10.408261 16.406205 -0.655975 0.000000 0.000000 0.000000 
-1.288154 0.959834 -0.268664 7.194722 -3.349040 7.082007 7.207065 -0.506836 -12.570203 -0.892639 -0.074211 8.149435 -0.126957 5.826338 18.920602 0.000000 0.000000 0.000000 -14.862862 0.253012 -18.104175 7.791358 -1.035634 11.353711 -6.176212 -16.726479 10.533398 0.000000 0.000000 0.000000 12.702425 -4.043060 25.439390 -2.492768 1.106551 -18.623755 3.792278 8.241603 26.082617 21.673822 -10.691391 -24.084116 0.000000 0.000000 0.000000 -8.059623 -21.892923 8.153413 -36.920505 -25.572011 1.355459 -0.786804 -70.546242 2.954989 0.000000 0.000000 0.000000 11.830749 18.515785 9.200200 37.613916 50.896792 10.788710 -9.685960 17.591192 -0.616347 0.000000 0.000000 0.000000 
-1.301623 0.962230 -0.270666 7.835262 -3.256064 7.240444 6.517478 -0.588270 -12.934351 -0.954340 -0.066811 8.283930 0.052164 6.229936 19.441286 0.000000 0.000000 0.000000 -14.949201 0.242913 -17.994693 7.910569 -1.050964 10.891794 -5.991967 -16.365611 10.452166 0.000000 0.000000 0.000000 12.916773 -4.172118 25.905888 -2.362776 1.074635 -19.045552 4.299951 8.537655 26.142634 21.595887 -10.671642 -23.874431 0.000000 0.000000 0.000000 -6.816278 -22.250768 8.139717 -34.559854 -27.285282 1.549401 5.998934 -69.895674 -1.994768 0.000000 0.000000 0.000000 11.869054 18.404912 9.210852 37.422749 50.260991 10.487843 -9.421574 18.096355 -0.602253 0.000000 0.000000 0.000000 
-1.312274 0.964070 -0.272194 8.465728 -2.988497 7.228608 5.743023 -0.674007 -13.074299 -0.932784 -0.076905 8.386806 0.243832 6.757298 20.306422 0.000000 0.000000 0.000000 -14.882994 0.233950 -17.782030 7.781725 -1.019351 10.240700 -6.168884 -16.682235 10.599703 0.000000 0.000000 0.000000 13.235512 -4.275293 25.942824 -2.149991 1.020681 -18.732767 4.564854 9.007632 25.733744 21.219859 -10.464139 -23.467999 0.000000 0.000000 0.000000 -5.367721 -23.313398 8.338588 -32.106149 -28.654039 1.615644 10.044819 -69.511777 -5.068057 0.000000 0.000000 0.000000 12.664623 18.148602 9.369002 36.617114 49.669795 9.954189 -8.940573 18.508356 -0.551997 0.000000 0.000000 0.000000 
-1.320432 0.965404 -0.272716 8.865414 -2.951594 7.181368 4.949020 -0.740722 -12.869428 -0.864633 -0.083607 8.038291 0.499993 7.190568 20.589875 0.000000 0.000000 0.000000 -14.758477 0.250391 -17.450009 7.439051 -0.941327 9.554895 -5.968524 -16.325300 10.807825 0.000000 0.000000 0.000000 13.848584 -4.472773 26.207317 -2.024857 0.987023 -18.811914 4.953976 9.396180 25.621675 21.584768 -10.499921 -23.932321 0.000000 0.000000 0.000000 -3.888789 -23.578774 8.245077 -30.623163 -29.303617 1.551146 15.269319 -70.227469 -9.025383 0.000000 0.000000 0.000000 13.405655 18.195166 9.617003 35.446293 49.222424 9.308376 -9.226450 17.990777 -0.573825 0.000000 0.000000 0.000000 
-1.326242 0.966230 -0.272171 9.456299 -2.609580 7.139351 4.017285 -0.821972 -12.659886 -1.000258 -0.056196 7.661809 0.443766 7.133225 20.413154 0.000000 0.000000 0.000000 -14.930290 0.220661 -16.896229 7.225850 -0.902843 9.024542 -6.338060 -16.956210 10.655464 0.000000 0.000000 0.000000 14.327377 -4.558195 25.821705 -1.956386 0.974201 -18.732578 5.384021 9.807045 25.599845 21.361475 -10.328028 -23.832711 0.000000 0.000000 0.000000 -2.964123 -24.395999 8.394865 -29.143538 -29.923526 1.465346 19.045943 -69.723992 -11.821267 0.000000 0.000000 0.000000 14.176057 17.961818 9.782606 34.572755 48.181925 8.577734 -8.657928 17.992814 -0.502177 0.000000 0.000000 0.000000 
-1.330108 0.966777 -0.270604 9.591034 -2.553520 6.866486 3.520574 -0.820414 -11.907872 -1.295599 0.005043 7.170712 0.403879 7.029922 20.163367 0.000000 0.000000 0.000000 -14.642542 0.248968 -16.375855 6.928497 -0.849598 8.931530 -6.286818 -16.819163 10.286999 0.000000 0.000000 0.000000 14.943000 -4.678589 25.654242 -1.669834 0.891772 -18.422983 5.569291 9.999016 25.432418 21.407686 -10.383969 -23.698197 0.000000 0.000000 0.000000 -2.019618 -24.386706 8.266884 -29.286836 -30.348123 1.551337 20.581372 -69.482393 -12.929618 0.000000 0.000000 0.000000 14.835899 18.181344 10.062455 32.974044 47.582681 7.760160 -8.475776 17.732615 -0.484055 0.000000 0.000000 0.000000 
-1.332378 0.967184 -0.268666 9.840815 -2.396656 6.600430 2.732369 -0.839315 -11.203304 -1.391532 0.025149 6.858467 0.280507 6.707434 19.419913 0.000000 0.000000 0.000000 -14.598889 0.257407 -15.475116 6.852351 -0.827611 8.232034 -6.537486 -17.255465 10.206551 0.000000 0.000000 0.000000 15.197368 -4.649139 25.112010 -1.294325 0.780051 -17.741844 5.572646 10.153857 25.033305 21.559889 -10.513844 -23.504911 0.000000 0.000000 0.000000 -1.376464 -25.058780 8.409647 -29.746916 -30.823005 1.715902 21.925619 -68.103769 -13.563910 0.000000 0.000000 0.000000 15.478232 18.330387 10.324845 31.701512 46.820711 7.043684 -8.289213 18.229346 -0.480044 0.000000 0.000000 0.000000 
-1.333468 0.967863 -0.266936 9.893599 -2.449847 6.373868 2.289586 -0.827322 -10.579268 -1.738341 0.094925 6.236625 0.256015 6.594667 19.131461 0.000000 0.000000 0.000000 -14.351982 0.292919 -14.740970 6.594385 -0.772403 7.637455 -6.707666 -17.562824 10.117777 0.000000 0.000000 0.000000 15.713603 -4.726881 24.905953 -1.338987 0.787320 -17.454001 5.650957 10.270794 24.892072 21.800286 -10.701362 -23.428713 0.000000 0.000000 0.000000 -1.262655 -25.281047 8.460967 -30.360163 -30.805698 1.800037 22.281964 -67.190557 -13.573201 0.000000 0.000000 0.000000 16.261831 18.533107 10.616642 29.587998 46.132117 6.053851 -7.381221 18.477988 -0.382122 0.000000 0.000000 0.000000 
